:FULLY-SPECIFIED
:FORCE-ALL-JOINTS-BE-3DOF
:DEGREES
883
root 3.85132 16.5379 30.5304 -10.8228 23.591 359.443
lfemur -15.7679 19.999 -19.1233
ltibia 40.4476 0 0
lfoot -13.0477 -0.455047 0
ltoes -1.24122 0 0
rfemur -80.1276 -24.4648 36.2747
rtibia 100.642 0 0
rfoot 18.6788 25.6734 0
rtoes -9.17391 0 0
lowerback 15.0106 -3.9693 -6.72379
upperback 4.96348 -6.24711 -2.40074
thorax -2.65119 -3.09423 2.27233
lowerneck -7.69306 -3.25615 1.70799
upperneck 4.57629 -4.85037 4.92891
head 2.90529 -2.19704 1.06196
lclavicle 3.02815e-14 -1.37824e-14 0
lhumerus -33.272 -40.4367 88.4079
lradius 60.8202 0 0
lwrist 19.662 0 0
lhand 25.6199 11.7118 0
lfingers 7.12502 0 0
lthumb 49.7275 33.0587 0
rclavicle 3.02815e-14 -1.37824e-14 0
rhumerus -49.1702 -29.3395 -47.219
rradius 72.4158 0 0
rwrist -23.211 0 0
rhand -46.8313 -53.764 0
rfingers 7.12502 0 0
rthumb -19.5437 -859.518 0
884
root 3.82769 16.5533 30.6 -10.2002 24.4874 358.917
lfemur -16.7068 21.5284 -18.7184
ltibia 40.77 0 0
lfoot -13.0942 0.632677 0
ltoes -1.17994 0 0
rfemur -78.4014 -25.6966 34.9953
rtibia 103.629 0 0
rfoot 19.4859 24.8398 0
rtoes -6.43743 0 0
lowerback 14.2618 -4.19437 -6.4938
upperback 4.64497 -6.46519 -2.18029
thorax -2.56942 -3.20269 2.35968
lowerneck -7.7678 -3.44878 1.55851
upperneck 4.87972 -5.11583 4.98796
head 3.03505 -2.32039 1.09162
lclavicle 8.48147e-15 -1.80232e-14 0
lhumerus -33.8667 -41.3063 89.831
lradius 60.4662 0 0
lwrist 18.3359 0 0
lhand 26.4402 11.7875 0
lfingers 7.12502 0 0
lthumb 50.4777 32.7376 0
rclavicle 8.48147e-15 -1.80232e-14 0
rhumerus -49.1586 -29.0563 -48.6614
rradius 74.7695 0 0
rwrist -23.4925 0 0
rhand -48.5015 -59.9934 0
rfingers 7.12502 0 0
rthumb -21.1488 -922.308 0
885
root 3.80407 16.5687 30.6695 -9.57769 25.3839 358.391
lfemur -17.6457 23.0577 -18.3135
ltibia 41.0923 0 0
lfoot -13.1407 1.7204 0
ltoes -1.11867 0 0
rfemur -76.6751 -26.9284 33.7158
rtibia 106.616 0 0
rfoot 20.2929 24.0061 0
rtoes -3.70094 0 0
lowerback 13.5131 -4.41943 -6.2638
upperback 4.32647 -6.68327 -1.95983
thorax -2.48764 -3.31114 2.44704
lowerneck -7.84255 -3.64141 1.40903
upperneck 5.18316 -5.38128 5.04702
head 3.1648 -2.44375 1.12128
lclavicle -1.33186e-14 -2.22639e-14 0
lhumerus -34.4615 -42.1759 91.2542
lradius 60.1121 0 0
lwrist 17.0098 0 0
lhand 27.2604 11.8633 0
lfingers 7.12502 0 0
lthumb 51.228 32.4166 0
rclavicle -1.33186e-14 -2.22639e-14 0
rhumerus -49.1469 -28.7732 -50.1037
rradius 77.1232 0 0
rwrist -23.7741 0 0
rhand -50.1716 -66.2227 0
rfingers 7.12502 0 0
rthumb -22.7538 -985.099 0
886
root 3.78689 16.5645 30.7459 -8.92665 25.9727 358.331
lfemur -18.4611 24.043 -18.3885
ltibia 41.4116 0 0
lfoot -13.4334 1.38619 0
ltoes -0.971211 0 0
rfemur -73.4211 -27.5541 31.2651
rtibia 107.741 0 0
rfoot 19.9409 22.2903 0
rtoes -3.76814 0 0
lowerback 12.8176 -4.51616 -6.33402
upperback 4.02892 -6.78222 -1.87955
thorax -2.39385 -3.36039 2.52842
lowerneck -7.81262 -3.8714 1.22635
upperneck 5.18564 -5.67384 5.1032
head 3.17636 -2.59094 1.15614
lclavicle -2.31087e-14 -1.84472e-14 0
lhumerus -35.7631 -42.6548 92.7714
lradius 60.4517 0 0
lwrist 16.3238 0 0
lhand 27.2704 11.8492 0
lfingers 7.12502 0 0
lthumb 51.2371 32.3973 0
rclavicle -2.31087e-14 -1.84472e-14 0
rhumerus -48.9407 -27.2926 -52.4557
rradius 79.7756 0 0
rwrist -23.4253 0 0
rhand -48.9385 -64.7908 0
rfingers 7.12502 0 0
rthumb -21.5684 -949.75 0
887
root 3.76971 16.5604 30.8223 -8.27561 26.5614 358.272
lfemur -19.2765 25.0282 -18.4635
ltibia 41.7309 0 0
lfoot -13.726 1.05198 0
ltoes -0.823751 0 0
rfemur -70.167 -28.1798 28.8143
rtibia 108.866 0 0
rfoot 19.589 20.5745 0
rtoes -3.83535 0 0
lowerback 12.1221 -4.6129 -6.40424
upperback 3.73137 -6.88116 -1.79927
thorax -2.30006 -3.40964 2.60979
lowerneck -7.78269 -4.10138 1.04368
upperneck 5.18812 -5.9664 5.15938
head 3.18792 -2.73813 1.191
lclavicle -3.28989e-14 -1.46306e-14 0
lhumerus -37.0648 -43.1337 94.2885
lradius 60.7912 0 0
lwrist 15.6378 0 0
lhand 27.2805 11.8351 0
lfingers 7.12502 0 0
lthumb 51.2462 32.378 0
rclavicle -3.28989e-14 -1.46306e-14 0
rhumerus -48.7346 -25.812 -54.8078
rradius 82.4281 0 0
rwrist -23.0765 0 0
rhand -47.7054 -63.3589 0
rfingers 7.12502 0 0
rthumb -20.3831 -914.401 0
888
root 3.75254 16.5562 30.8986 -7.62456 27.1502 358.212
lfemur -20.0918 26.0135 -18.5384
ltibia 42.0501 0 0
lfoot -14.0187 0.717763 0
ltoes -0.676292 0 0
rfemur -66.913 -28.8056 26.3636
rtibia 109.991 0 0
rfoot 19.237 18.8588 0
rtoes -3.90255 0 0
lowerback 11.4267 -4.70963 -6.47447
upperback 3.43383 -6.98011 -1.719
thorax -2.20628 -3.45889 2.69117
lowerneck -7.75275 -4.33137 0.861003
upperneck 5.19061 -6.25896 5.21556
head 3.19948 -2.88533 1.22586
lclavicle -4.2689e-14 -1.08139e-14 0
lhumerus -38.3664 -43.6125 95.8057
lradius 61.1308 0 0
lwrist 14.9518 0 0
lhand 27.2905 11.8209 0
lfingers 7.12502 0 0
lthumb 51.2554 32.3587 0
rclavicle -4.2689e-14 -1.08139e-14 0
rhumerus -48.5284 -24.3313 -57.1598
rradius 85.0805 0 0
rwrist -22.7277 0 0
rhand -46.4722 -61.9271 0
rfingers 7.12502 0 0
rthumb -19.1977 -879.052 0
889
root 3.73536 16.5521 30.975 -6.97352 27.7389 358.153
lfemur -20.9072 26.9987 -18.6134
ltibia 42.3694 0 0
lfoot -14.3113 0.38355 0
ltoes -0.528832 0 0
rfemur -63.6589 -29.4313 23.9128
rtibia 111.116 0 0
rfoot 18.8851 17.143 0
rtoes -3.96976 0 0
lowerback 10.7312 -4.80637 -6.54469
upperback 3.13628 -7.07905 -1.63872
thorax -2.11249 -3.50814 2.77254
lowerneck -7.72282 -4.56135 0.678328
upperneck 5.19309 -6.55152 5.27174
head 3.21104 -3.03252 1.26072
lclavicle -5.24792e-14 -6.99722e-15 0
lhumerus -39.6681 -44.0914 97.3228
lradius 61.4703 0 0
lwrist 14.2658 0 0
lhand 27.3006 11.8068 0
lfingers 7.12502 0 0
lthumb 51.2645 32.3394 0
rclavicle -5.24792e-14 -6.99722e-15 0
rhumerus -48.3223 -22.8507 -59.5119
rradius 87.733 0 0
rwrist -22.3789 0 0
rhand -45.2391 -60.4952 0
rfingers 7.12502 0 0
rthumb -18.0124 -843.703 0
890
root 3.71818 16.5479 31.0514 -6.32248 28.3277 358.093
lfemur -21.7226 27.984 -18.6884
ltibia 42.6887 0 0
lfoot -14.604 0.0493379 0
ltoes -0.381373 0 0
rfemur -60.4049 -30.057 21.4621
rtibia 112.241 0 0
rfoot 18.5331 15.4272 0
rtoes -4.03696 0 0
lowerback 10.0357 -4.9031 -6.61491
upperback 2.83873 -7.178 -1.55844
thorax -2.0187 -3.55739 2.85392
lowerneck -7.69289 -4.79134 0.495652
upperneck 5.19557 -6.84408 5.32792
head 3.2226 -3.17971 1.29558
lclavicle -6.22693e-14 -3.18055e-15 0
lhumerus -40.9697 -44.5703 98.84
lradius 61.8099 0 0
lwrist 13.5798 0 0
lhand 27.3106 11.7927 0
lfingers 7.12502 0 0
lthumb 51.2736 32.3201 0
rclavicle -6.22693e-14 -3.18055e-15 0
rhumerus -48.1161 -21.3701 -61.8639
rradius 90.3854 0 0
rwrist -22.0301 0 0
rhand -44.006 -59.0633 0
rfingers 7.12502 0 0
rthumb -16.827 -808.354 0
891
root 3.67104 16.525 31.0867 -6.06258 27.6923 358.235
lfemur -21.1938 27.4241 -18.2685
ltibia 41.9407 0 0
lfoot -14.9357 -0.253747 0
ltoes -0.991933 0 0
rfemur -59.7877 -29.6482 20.8405
rtibia 110.92 0 0
rfoot 17.8397 15.0919 0
rtoes -4.85395 0 0
lowerback 9.76203 -4.82244 -6.48922
upperback 2.75103 -7.05644 -1.67468
thorax -1.97268 -3.49786 2.64567
lowerneck -7.67771 -4.68142 0.553361
upperneck 5.1328 -6.6973 5.29639
head 3.19455 -3.10864 1.28218
lclavicle -6.096e-14 -4.38137e-15 0
lhumerus -41.3364 -44.551 99.0979
lradius 61.6838 0 0
lwrist 13.8278 0 0
lhand 27.5997 12.0455 0
lfingers 7.12502 0 0
lthumb 51.5253 32.3446 0
rclavicle -6.096e-14 -4.38137e-15 0
rhumerus -47.2079 -20.8088 -60.753
rradius 89.3953 0 0
rwrist -21.9341 0 0
rhand -43.4521 -58.6349 0
rfingers 7.12502 0 0
rthumb -16.2924 -807.935 0
892
root 3.6239 16.502 31.1219 -5.80268 27.0569 358.376
lfemur -20.665 26.8641 -17.8485
ltibia 41.1927 0 0
lfoot -15.2675 -0.556831 0
ltoes -1.60249 0 0
rfemur -59.1705 -29.2394 20.2189
rtibia 109.599 0 0
rfoot 17.1463 14.7566 0
rtoes -5.67095 0 0
lowerback 9.48836 -4.74178 -6.36352
upperback 2.66333 -6.93488 -1.79092
thorax -1.92665 -3.43833 2.43742
lowerneck -7.66253 -4.5715 0.611069
upperneck 5.07004 -6.55051 5.26486
head 3.16649 -3.03756 1.26878
lclavicle -5.96506e-14 -5.58219e-15 0
lhumerus -41.7031 -44.5318 99.3557
lradius 61.5576 0 0
lwrist 14.0759 0 0
lhand 27.8888 12.2984 0
lfingers 7.12502 0 0
lthumb 51.777 32.3691 0
rclavicle -5.96506e-14 -5.58219e-15 0
rhumerus -46.2998 -20.2474 -59.6422
rradius 88.4052 0 0
rwrist -21.8381 0 0
rhand -42.8981 -58.2065 0
rfingers 7.12502 0 0
rthumb -15.7578 -807.517 0
893
root 3.57677 16.4791 31.1572 -5.54278 26.4215 358.518
lfemur -20.1363 26.3042 -17.4286
ltibia 40.4448 0 0
lfoot -15.5992 -0.859915 0
ltoes -2.21305 0 0
rfemur -58.5534 -28.8305 19.5973
rtibia 108.278 0 0
rfoot 16.4529 14.4213 0
rtoes -6.48794 0 0
lowerback 9.21469 -4.66112 -6.23783
upperback 2.57563 -6.81333 -1.90716
thorax -1.88063 -3.37881 2.22916
lowerneck -7.64735 -4.46159 0.668778
upperneck 5.00727 -6.40373 5.23333
head 3.13844 -2.96649 1.25538
lclavicle -5.83413e-14 -6.78301e-15 0
lhumerus -42.0698 -44.5125 99.6136
lradius 61.4315 0 0
lwrist 14.3239 0 0
lhand 28.1779 12.5512 0
lfingers 7.12502 0 0
lthumb 52.0287 32.3936 0
rclavicle -5.83413e-14 -6.78301e-15 0
rhumerus -45.3916 -19.6861 -58.5313
rradius 87.4152 0 0
rwrist -21.742 0 0
rhand -42.3442 -57.7782 0
rfingers 7.12502 0 0
rthumb -15.2232 -807.098 0
894
root 3.52963 16.4561 31.1925 -5.28289 25.7861 358.66
lfemur -19.6075 25.7443 -17.0087
ltibia 39.6968 0 0
lfoot -15.9309 -1.163 0
ltoes -2.82361 0 0
rfemur -57.9362 -28.4217 18.9758
rtibia 106.958 0 0
rfoot 15.7594 14.0861 0
rtoes -7.30493 0 0
lowerback 8.94102 -4.58046 -6.11214
upperback 2.48793 -6.69177 -2.0234
thorax -1.8346 -3.31928 2.02091
lowerneck -7.63217 -4.35167 0.726487
upperneck 4.9445 -6.25695 5.2018
head 3.11038 -2.89542 1.24198
lclavicle -5.70319e-14 -7.98384e-15 0
lhumerus -42.4365 -44.4933 99.8714
lradius 61.3054 0 0
lwrist 14.572 0 0
lhand 28.4669 12.8041 0
lfingers 7.12502 0 0
lthumb 52.2804 32.4181 0
rclavicle -5.70319e-14 -7.98384e-15 0
rhumerus -44.4834 -19.1248 -57.4205
rradius 86.4251 0 0
rwrist -21.646 0 0
rhand -41.7902 -57.3498 0
rfingers 7.12502 0 0
rthumb -14.6887 -806.68 0
895
root 3.48249 16.4332 31.2277 -5.02299 25.1506 358.801
lfemur -19.0787 25.1843 -16.5887
ltibia 38.9488 0 0
lfoot -16.2626 -1.46608 0
ltoes -3.43417 0 0
rfemur -57.319 -28.0129 18.3542
rtibia 105.637 0 0
rfoot 15.066 13.7508 0
rtoes -8.12192 0 0
lowerback 8.66735 -4.4998 -5.98645
upperback 2.40023 -6.57021 -2.13964
thorax -1.78858 -3.25975 1.81266
lowerneck -7.61699 -4.24175 0.784196
upperneck 4.88174 -6.11017 5.17026
head 3.08233 -2.82434 1.22858
lclavicle -5.57226e-14 -9.18466e-15 0
lhumerus -42.8033 -44.474 100.129
lradius 61.1792 0 0
lwrist 14.82 0 0
lhand 28.756 13.0569 0
lfingers 7.12502 0 0
lthumb 52.5321 32.4426 0
rclavicle -5.57226e-14 -9.18466e-15 0
rhumerus -43.5753 -18.5634 -56.3096
rradius 85.435 0 0
rwrist -21.55 0 0
rhand -41.2363 -56.9214 0
rfingers 7.12502 0 0
rthumb -14.1541 -806.261 0
896
root 3.43535 16.4103 31.263 -4.76309 24.5152 358.943
lfemur -18.5499 24.6244 -16.1688
ltibia 38.2008 0 0
lfoot -16.5944 -1.76917 0
ltoes -4.04473 0 0
rfemur -56.7018 -27.6041 17.7326
rtibia 104.316 0 0
rfoot 14.3726 13.4155 0
rtoes -8.93892 0 0
lowerback 8.39368 -4.41914 -5.86075
upperback 2.31253 -6.44865 -2.25588
thorax -1.74255 -3.20022 1.60441
lowerneck -7.60181 -4.13183 0.841904
upperneck 4.81897 -5.96338 5.13873
head 3.05427 -2.75327 1.21519
lclavicle -5.44132e-14 -1.03855e-14 0
lhumerus -43.17 -44.4548 100.387
lradius 61.0531 0 0
lwrist 15.0681 0 0
lhand 29.0451 13.3098 0
lfingers 7.12502 0 0
lthumb 52.7838 32.4671 0
rclavicle -5.44132e-14 -1.03855e-14 0
rhumerus -42.6671 -18.0021 -55.1988
rradius 84.4449 0 0
rwrist -21.454 0 0
rhand -40.6824 -56.493 0
rfingers 7.12502 0 0
rthumb -13.6195 -805.843 0
